<?xml version="1.0" standalone="no"?>
<svg xmlns="http://www.w3.org/2000/svg" viewBox="0 0 161.76 29" width="161.76" height="29"><g fill="#007FFF" color="#007FFF" transform="translate(0, 0) scale(0.659091)"><svg width="44.0" height="44.0" x="0.0" y="0.0" viewBox="0 0 44 44"><path fill="currentColor" fill-rule="evenodd" d="M21.973 29.756l14.787 8.535-9.168 5.28-5.605-3.224-5.563 3.225-9.182-5.281 14.73-8.535zm0-15.005L44 27.454v6.492l-3.52 2.07-18.506-10.675L3.525 36.016l-3.52-2.042v-6.52L21.973 14.75zM21.97 0l22.026 12.689v10.576L21.984 10.591 0 23.294V12.703L21.97 0z"></path></svg></g><line x1="41" y1="1" x2="41" y2="28" stroke="#0076ec" stroke-linecap="round"></line><path fill="#0076ec" fill-rule="nonzero" d="M4.82 19.27Q3.29 19.27 2.20 18.31Q1.10 17.35 0.55 15.77Q0 14.18 0 12.34L0 12.34Q0 10.51 0.54 8.90Q1.08 7.30 2.18 6.29Q3.29 5.28 4.90 5.28L4.90 5.28Q6.12 5.28 7.09 5.89Q8.06 6.50 8.62 7.61Q9.17 8.71 9.22 10.13L9.22 10.13L6.02 10.27Q6.02 10.18 5.94 9.50Q5.86 8.83 5.58 8.40Q5.30 7.97 4.87 7.97L4.87 7.97Q3.91 7.97 3.65 9.28Q3.38 10.58 3.38 12.22L3.38 12.22Q3.38 13.82 3.66 15.13Q3.94 16.44 4.97 16.44L4.97 16.44Q6.26 16.44 6.31 13.90L6.31 13.90L9.14 14.21Q8.83 16.70 7.90 17.99Q6.96 19.27 4.82 19.27L4.82 19.27ZM13.54 19.27Q12.67 19.27 11.98 18.73Q11.28 18.19 10.90 17.27Q10.51 16.34 10.51 15.19L10.51 15.19Q10.51 12.58 12.30 11.51Q14.09 10.44 16.46 10.30L16.46 10.30Q16.46 9 16.30 8.38Q16.13 7.75 15.48 7.75L15.48 7.75Q14.93 7.75 14.64 8.18Q14.35 8.62 14.28 9.29L14.28 9.29L10.99 8.71Q11.23 6.86 12.50 6.07Q13.78 5.28 15.48 5.28L15.48 5.28Q17.66 5.28 18.76 6.43Q19.85 7.58 19.85 9.43L19.85 9.43L19.85 16.42Q19.85 17.54 20.21 18.82L20.21 18.82L16.92 19.10L16.54 17.45Q16.10 18.22 15.26 18.74Q14.42 19.27 13.54 19.27L13.54 19.27ZM15.10 16.87Q15.50 16.87 15.78 16.68Q16.06 16.49 16.46 16.06L16.46 16.06L16.46 12.31Q15.26 12.31 14.54 12.96Q13.82 13.61 13.82 14.98L13.82 14.98Q13.82 15.89 14.15 16.38Q14.47 16.87 15.10 16.87L15.10 16.87ZM22.63 19.10L22.63 5.74L25.99 5.45L25.99 7.63Q26.71 6.60 27.78 5.96Q28.85 5.33 30.50 5.33L30.50 5.33L30.50 8.62Q29.64 8.62 28.24 8.92Q26.83 9.22 25.99 9.96L25.99 9.96L25.99 18.82L22.63 19.10ZM38.95 13.34L32.21 13.34L32.21 10.54L38.95 10.54L38.95 13.34ZM45.79 19.27Q43.80 19.27 42.58 18.37Q41.35 17.47 40.99 15.86L40.99 15.86L43.61 15Q43.70 15.46 43.97 15.82L43.97 15.82Q44.52 16.61 45.58 16.61L45.58 16.61Q46.18 16.61 46.73 16.34Q47.28 16.08 47.28 15.53L47.28 15.53Q47.28 14.78 46.25 14.38L46.25 14.38L43.42 13.22Q42.29 12.74 41.69 11.78Q41.09 10.82 41.09 9.43L41.09 9.43Q41.09 8.14 41.72 7.20Q42.36 6.26 43.40 5.77Q44.45 5.28 45.65 5.28L45.65 5.28Q47.16 5.28 48.43 6.16Q49.70 7.03 50.14 8.54L50.14 8.54L47.35 9.41Q47.26 9 47.02 8.59L47.02 8.59Q46.49 7.78 45.67 7.78L45.67 7.78Q45.07 7.78 44.64 8.05Q44.21 8.33 44.21 8.86L44.21 8.86Q44.21 9.48 45.38 10.01L45.38 10.01L47.78 10.99Q49.06 11.59 49.78 12.50Q50.50 13.42 50.50 14.95L50.50 14.95Q50.50 16.34 49.82 17.32Q49.15 18.29 48.07 18.78Q46.99 19.27 45.79 19.27L45.79 19.27ZM56.88 19.27Q54.48 19.27 53.21 17.36Q51.94 15.46 51.94 12.29L51.94 12.29Q51.94 9.07 53.23 7.18Q54.53 5.28 57 5.28L57 5.28Q59.35 5.28 60.60 7.18Q61.85 9.07 61.85 12.29L61.85 12.29Q61.85 12.48 61.78 12.56Q61.70 12.65 61.70 12.67L61.70 12.67L55.30 12.67Q55.30 14.23 55.70 15.52Q56.11 16.80 56.95 16.80L56.95 16.80Q57.89 16.80 58.34 15.72Q58.80 14.64 58.82 14.59L58.82 14.59L61.37 15.55Q60.86 17.28 59.76 18.28Q58.66 19.27 56.88 19.27L56.88 19.27ZM55.30 10.73L58.54 10.73Q58.54 9.29 58.15 8.45Q57.77 7.61 56.95 7.61L56.95 7.61Q56.54 7.61 56.16 8.02Q55.78 8.42 55.54 9.14Q55.30 9.86 55.30 10.73L55.30 10.73ZM63.89 19.10L63.89 5.74L67.25 5.45L67.25 7.63Q67.97 6.60 69.04 5.96Q70.10 5.33 71.76 5.33L71.76 5.33L71.76 8.62Q70.90 8.62 69.49 8.92Q68.09 9.22 67.25 9.96L67.25 9.96L67.25 18.82L63.89 19.10ZM79.08 18.96L75.98 18.96L72.22 5.74L76.25 5.45L77.95 14.09L79.90 5.88L82.94 5.59L79.08 18.96ZM87.89 3.58L84.53 3.72L84.53 0.24L87.89 0L87.89 3.58ZM87.86 18.82L84.50 19.10L84.50 5.74L87.86 5.45L87.86 18.82ZM94.99 19.27Q93.46 19.27 92.36 18.31Q91.27 17.35 90.72 15.77Q90.17 14.18 90.17 12.34L90.17 12.34Q90.17 10.51 90.71 8.90Q91.25 7.30 92.35 6.29Q93.46 5.28 95.06 5.28L95.06 5.28Q96.29 5.28 97.26 5.89Q98.23 6.50 98.78 7.61Q99.34 8.71 99.38 10.13L99.38 10.13L96.19 10.27Q96.19 10.18 96.11 9.50Q96.02 8.83 95.75 8.40Q95.47 7.97 95.04 7.97L95.04 7.97Q94.08 7.97 93.82 9.28Q93.55 10.58 93.55 12.22L93.55 12.22Q93.55 13.82 93.83 15.13Q94.10 16.44 95.14 16.44L95.14 16.44Q96.43 16.44 96.48 13.90L96.48 13.90L99.31 14.21Q99 16.70 98.06 17.99Q97.13 19.27 94.99 19.27L94.99 19.27ZM105.79 19.27Q103.39 19.27 102.12 17.36Q100.85 15.46 100.85 12.29L100.85 12.29Q100.85 9.07 102.14 7.18Q103.44 5.28 105.91 5.28L105.91 5.28Q108.26 5.28 109.51 7.18Q110.76 9.07 110.76 12.29L110.76 12.29Q110.76 12.48 110.69 12.56Q110.62 12.65 110.62 12.67L110.62 12.67L104.21 12.67Q104.21 14.23 104.62 15.52Q105.02 16.80 105.86 16.80L105.86 16.80Q106.80 16.80 107.26 15.72Q107.71 14.64 107.74 14.59L107.74 14.59L110.28 15.55Q109.78 17.28 108.67 18.28Q107.57 19.27 105.79 19.27L105.79 19.27ZM104.21 10.73L107.45 10.73Q107.45 9.29 107.06 8.45Q106.68 7.61 105.86 7.61L105.86 7.61Q105.46 7.61 105.07 8.02Q104.69 8.42 104.45 9.14Q104.21 9.86 104.21 10.73L104.21 10.73Z" transform="translate(51, 4.864)"></path></svg>